<svg xmlns="http://www.w3.org/2000/svg" xmlns:xlink="http://www.w3.org/1999/xlink" width="500" zoomAndPan="magnify" viewBox="0 0 375 374.999991" height="500" preserveAspectRatio="xMidYMid meet" version="1.0"><defs><clipPath id="cd0f02bbc6"><path d="M 75.546875 146.648438 L 299.554688 146.648438 L 299.554688 208.839844 L 75.546875 208.839844 Z M 75.546875 146.648438 " clip-rule="nonzero"/></clipPath><clipPath id="f54c46bb9b"><path d="M 75.546875 176 L 299.554688 176 L 299.554688 213.3125 L 75.546875 213.3125 Z M 75.546875 176 " clip-rule="nonzero"/></clipPath><clipPath id="ffd3b7e31e"><path d="M 210.367188 172 L 299.554688 172 L 299.554688 209.957031 L 210.367188 209.957031 Z M 210.367188 172 " clip-rule="nonzero"/></clipPath><clipPath id="45b5975897"><path d="M 252.882812 187.050781 L 299.554688 187.050781 L 299.554688 207.164062 L 252.882812 207.164062 Z M 252.882812 187.050781 " clip-rule="nonzero"/></clipPath><clipPath id="f8a42f9040"><path d="M 94 199 L 137 199 L 137 228.398438 L 94 228.398438 Z M 94 199 " clip-rule="nonzero"/></clipPath><clipPath id="41da5fb0da"><path d="M 75.546875 176.433594 L 299.554688 176.433594 L 299.554688 213.3125 L 75.546875 213.3125 Z M 75.546875 176.433594 " clip-rule="nonzero"/></clipPath></defs><g clip-path="url(#cd0f02bbc6)"><path fill="#f4f6fc" d="M 249.972656 208.660156 C 212.660156 208.660156 181.109375 168.207031 168.242188 171.898438 C 162.117188 173.628906 159.046875 171.308594 156.328125 168.996094 C 152.574219 165.789062 149.507812 162.582031 139.992188 170.109375 C 130.984375 177.230469 125.660156 168.453125 119.578125 159.683594 C 114.59375 152.492188 109.105469 145.300781 100.664062 146.859375 C 81.921875 150.328125 75.546875 187.316406 75.546875 187.316406 L 299.59375 187.316406 C 299.59375 187.316406 275.984375 208.660156 249.972656 208.660156 " fill-opacity="1" fill-rule="nonzero"/></g><g clip-path="url(#f54c46bb9b)"><path fill="#ffdb15" d="M 291.761719 192.566406 C 274.195312 204.359375 250.8125 202.625 235.203125 188.375 C 234.8125 187.984375 234.367188 187.648438 233.972656 187.316406 L 299.59375 187.316406 L 291.761719 192.566406 M 161.921875 199.609375 C 146.703125 214.75 123.039062 217.375 104.917969 205.921875 L 75.546875 187.316406 L 174.507812 187.316406 C 173.613281 188.097656 172.660156 188.933594 171.824219 189.773438 L 161.921875 199.609375 M 233.972656 187.316406 L 174.507812 187.316406 C 191.515625 172.84375 216.742188 172.730469 233.972656 187.316406 " fill-opacity="1" fill-rule="nonzero"/></g><g clip-path="url(#ffd3b7e31e)"><path fill="#ffae00" d="M 221.253906 172.457031 C 217.808594 172.457031 214.25 173.714844 210.589844 176.699219 L 210.421875 176.835938 C 218.863281 177.980469 227.058594 181.464844 233.972656 187.316406 L 243.429688 187.316406 C 236.730469 179.335938 229.296875 172.449219 221.253906 172.457031 M 299.59375 187.316406 C 299.59375 187.316406 283.191406 202.144531 262.667969 207.082031 C 265.921875 209.050781 269.082031 209.878906 272.105469 209.878906 C 287.855469 209.878906 299.59375 187.316406 299.59375 187.316406 " fill-opacity="1" fill-rule="nonzero"/></g><g clip-path="url(#45b5975897)"><path fill="#b6ccd7" d="M 299.59375 187.316406 L 291.761719 192.566406 C 283.972656 197.792969 275.046875 200.363281 266.15625 200.363281 C 261.699219 200.363281 257.246094 199.714844 252.953125 198.433594 C 256.015625 201.769531 259.019531 204.683594 261.722656 206.480469 C 262.035156 206.691406 262.351562 206.890625 262.667969 207.082031 C 283.191406 202.144531 299.59375 187.316406 299.59375 187.316406 " fill-opacity="1" fill-rule="nonzero"/></g><path fill="#ffae00" d="M 197.644531 187.316406 L 174.507812 187.316406 C 173.613281 188.097656 172.660156 188.933594 171.824219 189.773438 L 161.921875 199.609375 C 159.671875 201.847656 157.238281 203.8125 154.664062 205.5 C 154.695312 205.511719 154.726562 205.519531 154.761719 205.53125 C 158.378906 206.707031 161.707031 207.242188 164.828125 207.242188 C 177.5625 207.242188 186.820312 198.328125 198.203125 187.703125 C 198.019531 187.574219 197.828125 187.445312 197.644531 187.316406 " fill-opacity="1" fill-rule="nonzero"/><path fill="#b6ccd7" d="M 198.617188 187.316406 L 197.644531 187.316406 C 197.828125 187.445312 198.019531 187.574219 198.203125 187.703125 C 198.34375 187.574219 198.480469 187.445312 198.617188 187.316406 " fill-opacity="1" fill-rule="nonzero"/><g clip-path="url(#f8a42f9040)"><path fill="#ffae00" d="M 94.035156 199.027344 C 101.710938 210.570312 106.074219 226.707031 118.0625 228.273438 C 118.730469 228.359375 119.367188 228.398438 119.976562 228.398438 C 127.347656 228.398438 130.574219 222.394531 133.894531 216.390625 C 134.617188 215.085938 135.335938 213.777344 136.113281 212.53125 C 133.898438 212.855469 131.667969 213.019531 129.429688 213.019531 C 120.972656 213.019531 112.464844 210.691406 104.917969 205.921875 L 94.035156 199.027344 " fill-opacity="1" fill-rule="nonzero"/></g><g clip-path="url(#41da5fb0da)"><path fill="#8ea0a8" d="M 210.421875 176.835938 C 206.125 180.367188 202.265625 183.949219 198.617188 187.316406 L 233.972656 187.316406 C 227.058594 181.464844 218.863281 177.980469 210.421875 176.835938 M 299.59375 187.316406 L 243.429688 187.316406 C 246.464844 190.953125 249.738281 194.925781 252.953125 198.433594 C 257.246094 199.714844 261.699219 200.363281 266.15625 200.363281 C 275.046875 200.363281 283.972656 197.792969 291.761719 192.566406 L 299.59375 187.316406 M 198.617188 187.316406 L 174.507812 187.316406 L 198.617188 187.316406 M 174.507812 187.316406 L 75.546875 187.316406 C 84.164062 187.316406 89.640625 192.417969 94.035156 199.027344 L 104.917969 205.921875 C 112.464844 210.691406 120.972656 213.019531 129.429688 213.019531 C 131.667969 213.019531 133.898438 212.855469 136.113281 212.53125 C 138.890625 208.058594 142.285156 204.382812 148.320312 204.382812 C 150.167969 204.382812 152.265625 204.730469 154.664062 205.5 C 157.238281 203.8125 159.671875 201.847656 161.921875 199.609375 L 171.824219 189.773438 C 172.660156 188.933594 173.613281 188.097656 174.507812 187.316406 " fill-opacity="1" fill-rule="nonzero"/></g></svg>